<svg width="34" height="36" viewBox="0 0 34 36" fill="none" xmlns="http://www.w3.org/2000/svg">
<path d="M26.4541 18.75C26.1585 18.7499 25.8659 18.6916 25.5928 18.5784C25.3198 18.4652 25.0717 18.2993 24.8628 18.0902C24.6539 17.8812 24.4882 17.633 24.3751 17.3599C24.2621 17.0868 24.204 16.7941 24.2041 16.4985C24.2042 16.2029 24.2625 15.9103 24.3757 15.6372C24.4889 15.3642 24.6548 15.1161 24.8639 14.9072C25.0729 14.6983 25.3211 14.5326 25.5942 14.4195C25.8673 14.3065 26.16 14.2484 26.4556 14.2485C27.0525 14.2487 27.6249 14.486 28.0469 14.9083C28.4689 15.3305 28.7058 15.9031 28.7056 16.5C28.7054 17.0969 28.4681 17.6693 28.0458 18.0913C27.6236 18.5133 27.051 18.7502 26.4541 18.75ZM17.4541 18.75C16.8572 18.7498 16.2848 18.5125 15.8628 18.0902C15.4408 17.668 15.2039 17.0954 15.2041 16.4985C15.2043 15.9016 15.4416 15.3292 15.8639 14.9072C16.2861 14.4852 16.8587 14.2483 17.4556 14.2485C18.0525 14.2487 18.6249 14.486 19.0469 14.9083C19.4689 15.3305 19.7058 15.9031 19.7056 16.5C19.7054 17.0969 19.4681 17.6693 19.0458 18.0913C18.6236 18.5133 18.051 18.7502 17.4541 18.75ZM8.4541 18.75C7.85717 18.7498 7.28476 18.5125 6.8628 18.0902C6.44084 17.668 6.2039 17.0954 6.2041 16.4985C6.2043 15.9016 6.44162 15.3292 6.86386 14.9072C7.2861 14.4852 7.85867 14.2483 8.4556 14.2485C9.05254 14.2487 9.62495 14.486 10.0469 14.9083C10.4689 15.3305 10.7058 15.9031 10.7056 16.5C10.7054 17.0969 10.4681 17.6693 10.0458 18.0913C9.6236 18.5133 9.05104 18.7502 8.4541 18.75ZM17.4541 0C8.3416 0 0.954102 7.3875 0.954102 16.5C0.954102 20.4795 2.3641 24.129 4.7101 26.979L2.4541 36L10.4581 31.4265C12.6454 32.4608 15.0346 32.9982 17.4541 33C26.5666 33 33.9541 25.6125 33.9541 16.5C33.9541 7.3875 26.5666 0 17.4541 0Z" fill="#8E8E8E"/>
</svg>
