<svg width="17" height="16" viewBox="0 0 17 16" fill="none" xmlns="http://www.w3.org/2000/svg">
<g clip-path="url(#clip0_734_2450)">
<path d="M16.7644 4.48C16.7644 4.86 16.6178 5.24 16.3244 5.53333L8.76444 13L1.20444 5.53333C1.06515 5.39623 0.95454 5.23279 0.879036 5.05252C0.803532 4.87226 0.764648 4.67877 0.764648 4.48333C0.764648 4.28789 0.803532 4.09441 0.879036 3.91414C0.95454 3.73388 1.06515 3.57043 1.20444 3.43333C1.79111 2.85333 2.73777 2.85333 3.32444 3.43333L8.76444 8.80667L14.2044 3.43333C14.7911 2.85333 15.7378 2.85333 16.3244 3.43333C16.6178 3.72667 16.7644 4.1 16.7644 4.48Z" fill="#8E8E8E"/>
</g>
<defs>
<clipPath id="clip0_734_2450">
<rect width="16" height="16" fill="white" transform="translate(0.764404 16) rotate(-90)"/>
</clipPath>
</defs>
</svg>
