<svg width="17" height="17" viewBox="0 0 17 17" fill="none" xmlns="http://www.w3.org/2000/svg">
<path d="M7.51725 10.9198C5.31059 10.9198 3.51725 9.12651 3.51725 6.91984C3.51725 4.71317 5.31059 2.91984 7.51725 2.91984C9.72392 2.91984 11.5173 4.71317 11.5173 6.91984C11.5173 9.12651 9.72392 10.9198 7.51725 10.9198ZM16.2639 12.8398L13.4239 9.99984C13.9254 9.05079 14.1863 7.99322 14.1839 6.91984C14.1839 3.23984 11.1973 0.253174 7.51725 0.253174C3.83725 0.253174 0.850586 3.23984 0.850586 6.91984C0.850586 10.5998 3.83725 13.5865 7.51725 13.5865C8.63059 13.5865 9.67725 13.3132 10.5973 12.8265L13.4373 15.6665C13.8123 16.041 14.3206 16.2514 14.8506 16.2514C15.3806 16.2514 15.8889 16.041 16.2639 15.6665C16.6385 15.2915 16.8488 14.7832 16.8488 14.2532C16.8488 13.7232 16.6385 13.2148 16.2639 12.8398Z" fill="#5F5F5F"/>
</svg>
