<svg width="31" height="32" viewBox="0 0 31 32" fill="none" xmlns="http://www.w3.org/2000/svg">
<path d="M29.9998 22.702C29.9698 22.678 26.7898 20.242 26.8453 13.657C26.8753 9.85751 25.6273 6.48401 23.3248 4.15601C21.2623 2.06651 18.4693 0.91001 15.4618 0.89801H15.4423C12.4363 0.91001 9.64328 2.06801 7.57928 4.15601C5.27828 6.48551 4.02878 9.85901 4.06028 13.6555C4.11578 20.1535 1.03028 22.606 0.907277 22.7005C0.517277 22.9915 0.358277 23.4955 0.509777 23.9575C0.661277 24.4195 1.09478 24.73 1.57928 24.73H8.32028C8.47028 28.546 11.6023 31.6105 15.4543 31.6105C19.3063 31.6105 22.4368 28.546 22.5883 24.73H29.3293C29.8153 24.73 30.2443 24.418 30.3973 23.9575C30.5503 23.497 30.3898 22.9915 29.9998 22.702ZM15.4543 28.612C13.2553 28.612 11.4688 26.8915 11.3203 24.73H19.5883C19.4383 26.89 17.6533 28.6105 15.4543 28.6105V28.612Z" fill="#8E8E8E"/>
</svg>
