<svg width="50" height="62" viewBox="0 0 50 62" fill="none" xmlns="http://www.w3.org/2000/svg">
<circle cx="24.8884" cy="25.2048" r="24" transform="rotate(0.701557 24.8884 25.2048)" fill="#E60023"/>
<path d="M17.8536 17.5727L21.0778 17.6121L25.2666 28.204L25.437 28.2061L29.884 17.72L33.1081 17.7594L32.9301 32.3038L30.4018 32.2729L30.5242 22.2807L30.3893 22.2791L26.2478 32.1794L24.3588 32.1562L20.4613 22.1362L20.3263 22.1345L20.2037 32.148L17.6755 32.117L17.8536 17.5727Z" fill="white"/>
<circle cx="35.042" cy="46.4996" r="6" fill="white"/>
<path d="M35.042 40.4996C33.4507 40.4996 31.9246 41.1317 30.7994 42.2569C29.6741 43.3822 29.042 44.9083 29.042 46.4996C29.042 48.0909 29.6741 49.617 30.7994 50.7422C31.9246 51.8674 33.4507 52.4996 35.042 52.4996C36.6333 52.4996 38.1594 51.8674 39.2846 50.7422C40.4099 49.617 41.042 48.0909 41.042 46.4996C41.042 44.9083 40.4099 43.3822 39.2846 42.2569C38.1594 41.1317 36.6333 40.4996 35.042 40.4996ZM32.227 46.3046C32.344 46.1885 32.5022 46.1234 32.667 46.1234C32.8318 46.1234 32.9899 46.1885 33.107 46.3046L34.292 47.4846L36.977 44.8096C37.0969 44.7103 37.2494 44.6593 37.4049 44.6666C37.5604 44.6739 37.7075 44.739 37.8176 44.849C37.9276 44.9591 37.9926 45.1062 37.9999 45.2617C38.0072 45.4171 37.9563 45.5697 37.857 45.6896L34.292 49.2496L32.227 47.1846C32.111 47.0675 32.0459 46.9094 32.0459 46.7446C32.0459 46.5798 32.111 46.4216 32.227 46.3046Z" fill="#E60023"/>
<circle cx="35.042" cy="46.4996" r="5.5" stroke="black"/>
</svg>
